<?xml version="1.0" standalone="no"?>
<!DOCTYPE svg PUBLIC "-//W3C//DTD SVG 20010904//EN"
 "http://www.w3.org/TR/2001/REC-SVG-20010904/DTD/svg10.dtd">
<svg version="1.0" xmlns="http://www.w3.org/2000/svg"
 width="840.000000pt" height="951.000000pt" viewBox="0 0 840.000000 951.000000"
 preserveAspectRatio="xMidYMid meet">
<metadata>
Created by potrace 1.16, written by Peter Selinger 2001-2019
</metadata>
<g transform="translate(0.000000,951.000000) scale(0.100000,-0.100000)"
fill="#000000" stroke="none">
<path d="M3859 9054 c-22 -36 -22 -37 -6 -108 105 -464 105 -466 161 -466 39
0 76 25 76 51 0 11 -9 38 -21 60 -13 26 -24 75 -30 132 -16 165 -53 304 -91
344 -32 34 -62 30 -89 -13z"/>
<path d="M5311 8944 c-11 -14 -25 -42 -32 -62 -18 -56 -74 -132 -209 -287
-135 -154 -210 -251 -210 -270 0 -6 9 -20 20 -30 19 -17 21 -17 59 8 65 43
465 450 502 511 29 48 24 74 -21 118 -48 45 -80 49 -109 12z"/>
<path d="M2482 8748 c-7 -7 -12 -28 -12 -47 0 -31 10 -46 88 -121 182 -178
433 -370 484 -370 26 0 68 30 68 49 0 19 -47 65 -148 148 -59 48 -153 128
-210 178 -56 49 -126 109 -155 132 -53 44 -92 54 -115 31z"/>
<path d="M4191 7819 c-143 -71 -282 -243 -342 -424 -21 -61 -24 -89 -24 -220
0 -97 5 -167 14 -197 17 -61 68 -119 128 -149 86 -42 324 -28 466 28 48 20 47
39 -4 54 -33 10 -75 10 -207 0 l-165 -12 -45 23 c-70 36 -95 94 -94 217 2 231
113 435 302 558 104 67 120 93 80 133 -26 26 -36 25 -109 -11z"/>
<path d="M3993 6475 c-50 -21 -55 -41 -43 -157 10 -104 6 -206 -25 -592 -15
-189 -14 -202 29 -229 24 -16 26 -16 44 8 24 30 27 49 52 350 42 488 62 542
146 390 32 -58 104 -258 104 -289 0 -13 -12 -16 -69 -16 -78 0 -104 -15 -99
-58 5 -38 44 -60 150 -83 l98 -21 52 30 c29 16 54 36 56 45 2 8 -12 24 -33 37
-45 28 -77 83 -119 206 -65 191 -117 293 -185 362 -28 27 -40 32 -79 32 -26
-1 -61 -7 -79 -15z"/>
<path d="M2291 5232 c-25 -48 -2 -137 42 -161 19 -10 38 -8 111 13 49 14 110
26 136 26 42 0 50 -3 56 -22 4 -13 49 -115 102 -228 52 -114 97 -224 100 -247
4 -37 1 -46 -25 -72 -16 -16 -49 -35 -72 -42 -38 -11 -47 -10 -94 10 -83 37
-105 38 -117 6 -17 -44 -12 -75 18 -105 43 -42 99 -56 174 -42 133 25 238 107
238 187 0 45 -41 171 -119 368 -28 71 -51 134 -51 141 0 10 26 12 118 8 l118
-5 18 28 c16 24 16 28 2 44 -9 10 -33 23 -54 29 -92 28 -377 66 -578 78 -106
7 -112 6 -123 -14z"/>
<path d="M5169 5199 c-24 -49 -24 -56 24 -210 46 -150 66 -262 74 -428 6 -121
8 -136 30 -162 31 -36 54 -37 95 0 l32 28 -22 37 c-12 20 -22 39 -22 42 0 11
76 1 266 -36 216 -42 437 -80 467 -80 35 0 15 18 -60 55 -130 63 -229 103
-336 136 -214 65 -227 70 -227 89 0 27 52 65 216 160 155 90 224 144 224 177
0 23 -37 81 -62 97 -14 8 -27 1 -70 -40 -81 -77 -387 -274 -425 -274 -13 0
-14 4 -68 235 -32 134 -42 164 -66 187 -15 15 -32 28 -38 28 -6 0 -20 -19 -32
-41z"/>
<path d="M3458 5140 c-29 -17 -33 -90 -9 -169 31 -103 28 -146 -16 -217 -35
-54 -38 -65 -37 -129 0 -76 34 -204 58 -224 12 -10 25 -3 71 39 l56 50 43 -25
c49 -29 56 -30 80 -12 12 9 20 35 26 82 9 73 10 74 88 137 30 24 28 36 -10 56
-56 29 -108 86 -108 118 -1 38 -29 100 -86 185 -71 106 -112 134 -156 109z"/>
<path d="M4057 5090 c-30 -34 -74 -98 -97 -143 l-41 -82 -2 -135 c-2 -119 1
-140 19 -181 47 -102 133 -162 234 -162 30 0 107 12 170 27 202 49 205 50 208
72 7 48 -63 58 -214 29 -150 -29 -208 -17 -259 49 -74 98 -87 258 -25 324 17
18 32 22 83 22 86 0 91 5 83 77 -9 74 -33 123 -72 146 l-32 18 -55 -61z"/>
<path d="M4085 4143 c-10 -9 -23 -30 -30 -47 -14 -33 -14 -33 45 -228 22 -70
42 -149 46 -176 6 -45 4 -51 -15 -62 -12 -6 -45 -13 -74 -16 -78 -8 -90 -11
-115 -34 -31 -29 -28 -57 11 -81 27 -17 43 -20 102 -15 81 6 111 1 120 -22 4
-10 13 -71 21 -138 20 -183 45 -239 78 -175 12 23 16 62 16 160 0 122 1 131
24 158 13 15 52 39 86 53 102 41 106 73 10 85 -97 13 -116 16 -128 24 -14 8
-29 79 -62 291 -24 152 -41 196 -86 223 -30 17 -33 17 -49 0z"/>
<path d="M4384 2682 c-16 -10 -20 -28 -49 -211 -36 -234 -59 -313 -101 -351
-19 -16 -39 -30 -45 -30 -22 0 -66 33 -89 67 -21 30 -24 47 -25 122 0 110 -22
156 -75 156 -28 0 -37 -6 -53 -32 -33 -58 -20 -259 22 -327 52 -83 129 -128
221 -129 95 -1 156 49 216 177 43 91 64 212 65 378 0 129 0 131 -27 159 -29
30 -41 34 -60 21z"/>
<path d="M4310 1713 c-31 -11 -68 -39 -117 -88 -60 -60 -74 -80 -88 -129 -18
-62 -15 -123 10 -182 7 -17 62 -78 121 -135 303 -289 402 -393 415 -438 19
-63 1 -89 -86 -124 -199 -80 -391 -112 -540 -88 -84 14 -105 7 -105 -34 0 -27
49 -72 87 -81 50 -13 276 5 383 30 123 28 290 81 342 107 80 41 96 99 55 199
-50 121 -106 189 -291 355 -227 202 -268 255 -252 321 6 21 11 25 29 20 12 -4
43 -9 69 -13 l48 -6 22 49 c40 91 26 218 -28 243 -14 6 -26 11 -27 10 -1 0
-22 -8 -47 -16z"/>
</g>
</svg>
